PathFileType	4	(X/Y/Z)	12_2_110_p1_0-176_filt_butterworth.trc
DataRate	CameraRate	NumFrames	NumMarkers	Units	OrigDataRate	OrigDataStartFrame	OrigNumFrames
59.0	59.0	5	27	m	59.0	110	176
Frame#	Time	RHip			RKnee			RAnkle			RBigToe			RSmallToe			RHeel			LHip			LKnee			LAnkle			LBigToe			LSmallToe			LHeel			Neck			Head			Nose			RShoulder			RElbow			RWrist			RThumb			RIndex			RPinky			LShoulder			LElbow			LWrist			LThumb			LIndex			LPinky			
		X1	Y1	Z1	X2	Y2	Z2	X3	Y3	Z3	X4	Y4	Z4	X5	Y5	Z5	X6	Y6	Z6	X7	Y7	Z7	X8	Y8	Z8	X9	Y9	Z9	X10	Y10	Z10	X11	Y11	Z11	X12	Y12	Z12	X13	Y13	Z13	X14	Y14	Z14	X15	Y15	Z15	X16	Y16	Z16	X17	Y17	Z17	X18	Y18	Z18	X19	Y19	Z19	X20	Y20	Z20	X21	Y21	Z21	X22	Y22	Z22	X23	Y23	Z23	X24	Y24	Z24	X25	Y25	Z25	X26	Y26	Z26	X27	Y27	Z27	
110	1.8644067796610169	0.4335273479192434	0.524634833066603	1.0686908129847577	0.4808455012402444	0.5565127472066382	1.5114357370931766	0.4982513966827173	0.6222936185880292	1.9371242733854224	0.4785082477429752	0.39028621838833316	1.9339057070938879	0.5385201504250383	0.4375310403115139	1.93729252555028	0.47732426119838445	0.6496224584919864	2.0001775616678446	0.22365150576819304	0.5341404292607147	1.089985873578021	0.26911202418322944	0.5455271159022791	1.544092534456616	0.3296080656293066	0.6004610406505326	1.9530627324651304	0.33718958855048214	0.39266132632084205	1.962813451174907	0.2664777105383738	0.4585041835772821	1.9658361047500046	0.348622527536244	0.6316127482353846	1.9961444443019878	0.2682415794567837	0.5538630020485642	0.4315668432207708	0.25448289904976185	0.5349134274952367	0.16303362323085396	0.2603756408705671	0.4684693216082326	0.30185431603436513	0.4372537811814179	0.552849950580926	0.5008362317637867	0.4330233460014242	0.39040571649514133	0.7015469369756254	0.2954726871125715	0.4329122554959695	0.5024443706610432	0.2669574017686188	0.46595190813474757	0.4061677525735302	0.26678259935853116	0.44369746984739156	0.396052128686329	0.25774318718854033	0.3990035360712216	0.4478288885024904	0.11673535860679007	0.5595951828662717	0.5352856935991274	0.12409478463966617	0.4849092421407789	0.8240871916745508	0.1926942173236956	0.3689226194307526	1.065741601135619	0.27076558640909837	0.4036385684178	1.168526443594045	0.2599885915376691	0.38096883388302727	1.1750631112340304	0.20536781989938932	0.3440131844303118	1.1635434203790156
111	1.88135593220339	0.43336796162538394	0.5250340708881996	1.0677946505363842	0.4807883074288438	0.5565542190851751	1.5121356557153585	0.49987588742017364	0.6229332837142876	1.9372580310805938	0.4784952770228814	0.39025895594865767	1.9338789273220347	0.53850057720105	0.43743509219111193	1.9374092639012654	0.4772724683877056	0.649894894544966	2.000691610424776	0.2236666185048472	0.5340965164386768	1.0900653660184647	0.26909253739584227	0.5455280718627025	1.5441065649153118	0.33029389416769694	0.6011333213849861	1.9543768555270278	0.3370549222826198	0.3927046908684043	1.961854323307079	0.2663756657747063	0.45862381214464487	1.9671301423451228	0.34815355363516065	0.6331107223527525	1.9971783165057024	0.26824704009782563	0.5538964391297883	0.4315675242373247	0.25409563144756186	0.5347169151767008	0.16306205018786993	0.26036773449298894	0.4684687540879289	0.30190414074404753	0.43726253837963036	0.5528287594240766	0.5007119234120317	0.43303522417024615	0.39043855939827277	0.701551506706753	0.2958495412552123	0.4315687990035883	0.5021816454774111	0.26697183653259426	0.46581281622045245	0.4065335217819124	0.26680433443954	0.44367791168822096	0.3960604748780795	0.25875440058608884	0.3992159544636477	0.44781919534321	0.11673318484924224	0.5596244758175224	0.535209806258156	0.12407102228120558	0.48488322635803655	0.8240067184810154	0.19188897696766452	0.37124071219320226	1.0667314571963191	0.27080718393148107	0.40345256460157986	1.1684863555051617	0.2584797798923597	0.38506716652848816	1.1769455292673825	0.20537503425188894	0.3440093497404376	1.1635679034569595
112	1.8983050847457628	0.43331038073557787	0.525214678268078	1.0674350844053435	0.48075469887761213	0.556578117739633	1.512573433279865	0.501013370831523	0.6234436740543927	1.937391002860212	0.47848164542050664	0.3902156939885787	1.9338485578000757	0.5382514281344526	0.4380502433386744	1.9386739005296483	0.47708004746683075	0.6496314732131748	2.0008787496255422	0.22367049193691785	0.5340652739725916	1.0900717378074323	0.26907203138221597	0.5455232763927549	1.5441106173361665	0.33041483845626574	0.6017783807598888	1.955222105233155	0.33687892166475897	0.3929905352231651	1.9605085402249625	0.26568611332437375	0.4567039438292736	1.96575544123221	0.34716834700205385	0.6379788672623983	2.0012296206176643	0.26824768272099914	0.553931798556841	0.43156312277678205	0.2541036454827389	0.5347370259736147	0.1630600098335817	0.2603715699707084	0.4684785784603001	0.3019707548574	0.4372787379833421	0.5528324204171825	0.5006534925825774	0.43304369402330184	0.3904894930879912	0.7015648655276155	0.2968684673591353	0.4283174725261208	0.5015384341023759	0.2670157710491752	0.46576062935862733	0.4075506294496293	0.26681886254853915	0.4436692453115707	0.39602564303836313	0.25909912566649096	0.39917817277217893	0.44777751949093403	0.11647325782037352	0.5584230099991343	0.5350963610371123	0.1240524717278586	0.48486102286861316	0.8239710331020229	0.19118553004347233	0.37322061738526324	1.067580284956354	0.2708061121843166	0.403463838345976	1.1685184539053575	0.2573911304432664	0.38867809634150374	1.178554618947969	0.20536813431661433	0.3440181746445243	1.1636781384563661
113	1.915254237288136	0.4333140302077065	0.5252379982043158	1.0674370327347857	0.4807623803745617	0.5565977488659655	1.5126995961070522	0.5009949785760146	0.623532492788111	1.9374684902989014	0.4784710730210553	0.39017184508409314	1.93382385375162	0.5374091160417824	0.4401219287764059	1.94149042061264	0.4769339981865348	0.649193197428283	2.000752571913881	0.22360074619500836	0.5341650072071001	1.089713033221168	0.2690588861001144	0.5455155162531866	1.5441193835096898	0.32994824648729504	0.6013134688639855	1.955353785488179	0.3366468797481594	0.39345080621402684	1.959418010829129	0.2644678478747388	0.452829977362032	1.9623223537600052	0.3457713343900251	0.644322534413945	2.005665915956077	0.26824106772151834	0.5539472605288935	0.43155184250467205	0.25420485076361604	0.5347942960860279	0.16304234538725054	0.26036333452877825	0.46852073641224024	0.3019267245120171	0.4373119369062325	0.5528519212364801	0.501037775936682	0.43304615774810973	0.3905371113770771	0.7015861006428687	0.2983032942603431	0.42408199286907483	0.5010101249494678	0.2670724787032995	0.4657567453354913	0.4088184791331648	0.2668232191819102	0.4436381565136852	0.39595378735459624	0.25906306244098914	0.39916068666123905	0.4477137608276113	0.11582906928985173	0.555219099581709	0.5351111971540723	0.12403991213081145	0.48484827592468926	0.8239622970105457	0.19084073047973618	0.37414190887929827	1.0679886138067458	0.27079275555742727	0.4035623474122663	1.1685934635951918	0.25729107810936935	0.39165017102819377	1.1798616521700713	0.20535426083579747	0.3440387618882716	1.1637464026594442
114	1.9322033898305084	0.43332373975222327	0.5252143047171346	1.0674959690139194	0.4807952508995979	0.556616082580045	1.5127198201895808	0.4998284682689679	0.6231721540575795	1.9374724912042205	0.47847424846124964	0.390146964805718	1.9338100383345116	0.5358369675409409	0.4432215219008737	1.9445370413648626	0.4768441737508633	0.6488937979894268	2.0005706461161163	0.22341909747278446	0.5344254265756462	1.0887297451884757	0.26905907480988334	0.5455170356940031	1.5441116283289813	0.3291432488689903	0.5987707716337045	1.954864403634114	0.33605487010763335	0.3936267382748915	1.9588635673775814	0.2633184819083724	0.4481515611005257	1.959141891840055	0.3445356489114612	0.6492238051514863	2.0080502042263686	0.26823092389594155	0.5539374280505847	0.4315403672183426	0.2542642343583329	0.5348114495522538	0.1629909783634588	0.26030448076912105	0.4686223900839087	0.3015269871762085	0.43736509557833103	0.5528480766846893	0.5022525629886918	0.4330497672141826	0.39056462979013423	0.7016075310822828	0.2995549660198977	0.4208731013413264	0.5012875268564951	0.2671364365542123	0.46574231407543004	0.40975586887268767	0.2668326393431755	0.4435523279441023	0.3959515147336943	0.2589622346014775	0.39918295350880173	0.44766566715804795	0.11502177172638882	0.5508720956991274	0.535443507853299	0.12403123692985007	0.48484814056677406	0.8239517476212865	0.19079998748055715	0.3742037732949419	1.0680352910157924	0.27078863474712656	0.4036265456519875	1.1686642857496168	0.2581504849896237	0.39446540603145835	1.1812632653359572	0.2053445659335134	0.3440635647241229	1.1637620318685726
